Coordinates
version=1
nRows=11
nColumns=63
inDegrees=yes

Units are S.I. units (second, meters, Newtons, ...)
If the header above contains a line with 'inDegrees', this indicates whether rotational values are in degrees (yes) or radians (no).

endheader
time	pelvis_tilt	pelvis_list	pelvis_rotation	pelvis_tx	pelvis_ty	pelvis_tz	hip_flexion_r	hip_adduction_r	hip_rotation_r	knee_angle_r	knee_angle_r_beta	ankle_angle_r	subtalar_angle_r	mtp_angle_r	hip_flexion_l	hip_adduction_l	hip_rotation_l	knee_angle_l	knee_angle_l_beta	ankle_angle_l	subtalar_angle_l	mtp_angle_l	L5_S1_Flex_Ext	L5_S1_Lat_Bending	L5_S1_axial_rotation	L4_L5_Flex_Ext	L4_L5_Lat_Bending	L4_L5_axial_rotation	L3_L4_Flex_Ext	L3_L4_Lat_Bending	L3_L4_axial_rotation	L2_L3_Flex_Ext	L2_L3_Lat_Bending	L2_L3_axial_rotation	L1_L2_Flex_Ext	L1_L2_Lat_Bending	L1_L2_axial_rotation	L1_T12_Flex_Ext	L1_T12_Lat_Bending	L1_T12_axial_rotation	Abs_r3	Abs_r2	Abs_r1	Abs_t1	Abs_t2	neck_flexion	neck_bending	neck_rotation	arm_flex_r	arm_add_r	arm_rot_r	elbow_flex_r	pro_sup_r	wrist_flex_r	wrist_dev_r	arm_flex_l	arm_add_l	arm_rot_l	elbow_flex_l	pro_sup_l	wrist_flex_l	wrist_dev_l
3.135593	3.589168	-3.265537	101.721383	0.061117	0.714871	0.763004	1.632159	2.033364	-9.834157	22.075627	0.385292	37.484165	-2.849632	0.000000	3.177197	-4.000686	-4.707869	22.710480	0.396373	40.958092	15.565753	0.000000	-0.015760	-0.039099	-0.848219	-0.029268	-0.052002	-0.901233	-0.025892	-0.095066	-0.901233	-0.018012	-0.095066	-0.742192	-0.014635	-0.079732	-0.689178	-0.009005	-0.060565	-0.636164	-0.112571	-0.442301	-4.717541	0.000000	0.000000	10.443383	-0.332504	-0.632653	14.995550	-9.393621	150.910219	0.301316	2.509423	1.303268	-18.839444	-8.946651	-29.145987	40.246768	118.546268	82.343094	32.629346	1.211282
3.152542	3.511725	-3.730033	101.361647	0.063263	0.714134	0.763620	2.397980	1.969377	-9.194662	22.474435	0.392253	37.546460	-3.284055	0.000000	3.692139	-3.973120	-5.190187	22.765699	0.397336	40.961038	15.903221	0.000000	-0.000738	-0.034333	-0.849985	-0.001370	-0.045663	-0.903109	-0.001212	-0.083478	-0.903109	-0.000843	-0.083478	-0.743737	-0.000685	-0.070012	-0.690613	-0.000421	-0.053182	-0.637489	-0.005269	-0.388384	-4.727362	0.000000	0.000000	10.675392	0.030780	0.469290	15.259000	-9.172847	151.045982	0.289998	2.518251	0.882768	-18.569954	-9.529749	-29.061741	39.626393	118.405117	83.460895	31.435842	0.364544
3.169492	3.429729	-4.163400	100.915418	0.065629	0.713484	0.764140	3.157785	1.916162	-8.465100	22.890655	0.399517	37.676795	-3.648226	0.000000	4.165911	-3.958103	-5.735584	22.836799	0.398577	40.943297	16.156107	0.000000	0.012201	-0.030689	-0.825183	0.022658	-0.040816	-0.876757	0.020044	-0.074617	-0.876757	0.013944	-0.074617	-0.722035	0.011330	-0.062581	-0.670461	0.006971	-0.047537	-0.618887	0.087148	-0.347160	-4.589420	0.000000	0.000000	11.152139	0.246056	1.308134	15.434618	-8.969537	150.770194	0.282202	2.482933	0.299683	-18.371107	-10.013394	-28.980430	39.128487	118.200020	84.661609	29.957550	-0.667013
3.186441	3.336879	-4.561542	100.385912	0.068165	0.712982	0.764563	3.889478	1.868279	-7.669281	23.298212	0.406631	37.863292	-3.911604	0.000000	4.584671	-3.946082	-6.334038	22.905226	0.399772	40.899217	16.322194	0.000000	0.023515	-0.028739	-0.773801	0.043669	-0.038223	-0.822164	0.038632	-0.069876	-0.822164	0.026875	-0.069876	-0.677076	0.021836	-0.058604	-0.628714	0.013436	-0.044517	-0.580351	0.167962	-0.325101	-4.303650	0.000000	0.000000	11.857277	0.332671	1.859200	15.531352	-8.791878	150.267793	0.275709	2.439873	-0.367333	-18.253611	-10.376783	-28.929913	38.792871	117.978606	85.858207	28.191253	-1.869134
3.203390	3.236912	-4.906697	99.750287	0.070870	0.712685	0.764933	4.575060	1.814539	-6.849989	23.704066	0.413714	38.098857	-3.988764	0.000000	4.933578	-3.938722	-6.998174	22.980341	0.401083	40.827510	16.399781	0.000000	0.030388	-0.027587	-0.694474	0.056434	-0.036690	-0.737879	0.049925	-0.067074	-0.737879	0.034731	-0.067074	-0.607665	0.028219	-0.056255	-0.564260	0.017364	-0.042732	-0.520856	0.217061	-0.312065	-3.862459	0.000000	0.000000	12.725999	0.282477	2.097475	15.569594	-8.632596	149.574318	0.274558	2.359671	-1.012572	-18.209983	-10.621308	-28.921964	38.598966	117.807373	87.114502	26.110098	-3.259032
3.220339	3.107451	-5.232367	99.114060	0.073543	0.712552	0.765188	5.200322	1.745233	-6.075786	24.045180	0.419668	38.374866	-3.931131	0.000000	5.238692	-3.908998	-7.649549	23.028265	0.401919	40.729623	16.446417	0.000000	0.040176	-0.030058	-0.609061	0.074610	-0.039977	-0.647128	0.066005	-0.073083	-0.647128	0.045917	-0.073083	-0.532929	0.037307	-0.061294	-0.494862	0.022956	-0.046560	-0.456796	0.286971	-0.340023	-3.387416	0.000000	0.000000	13.648587	0.155896	2.062632	15.562651	-8.490306	148.930145	0.272956	2.400674	-1.499256	-18.292106	-10.746520	-28.988137	38.558909	117.696134	88.245890	23.862324	-4.835606
3.237288	2.979848	-5.507621	98.504925	0.076138	0.712568	0.765446	5.760136	1.687112	-5.387435	24.363628	0.425226	38.661360	-3.749824	0.000000	5.520288	-3.886258	-8.216622	23.123135	0.403575	40.623092	16.398640	0.000000	0.046200	-0.031218	-0.538882	0.085797	-0.041519	-0.572562	0.075901	-0.075902	-0.572562	0.052802	-0.075902	-0.471521	0.042901	-0.063659	-0.437841	0.026399	-0.048356	-0.404161	0.330000	-0.353139	-2.997097	0.000000	0.000000	14.574202	-0.043496	1.874098	15.599093	-8.355157	148.677949	0.269792	2.428502	-1.791157	-18.425389	-10.879747	-29.015959	38.377982	117.683783	89.010920	22.038925	-6.110975
3.254237	2.840575	-5.745577	97.920087	0.078666	0.712663	0.765678	6.266783	1.618797	-4.809207	24.672404	0.430615	38.960534	-3.428365	0.000000	5.778364	-3.856946	-8.715777	23.252833	0.405838	40.497596	16.284741	0.000000	0.050752	-0.033425	-0.481880	0.094252	-0.044456	-0.511998	0.083381	-0.081271	-0.511998	0.058005	-0.081271	-0.421645	0.047129	-0.068161	-0.391528	0.029000	-0.051776	-0.361410	0.362520	-0.378115	-2.680075	0.000000	0.000000	15.393587	-0.266444	1.530579	15.659964	-8.202962	148.735376	0.267435	2.513371	-2.040682	-18.600840	-10.976999	-29.028463	38.078721	117.794120	89.316825	20.669487	-6.986256
3.271186	2.700252	-5.921519	97.392178	0.081024	0.712771	0.765908	6.698552	1.548451	-4.345358	24.979151	0.435968	39.267632	-3.028324	0.000000	6.008015	-3.831180	-9.122526	23.448922	0.409261	40.375094	16.125677	0.000000	0.050034	-0.034177	-0.448962	0.092919	-0.045455	-0.477022	0.082201	-0.083097	-0.477022	0.057184	-0.083097	-0.392842	0.046462	-0.069693	-0.364782	0.028590	-0.052940	-0.336722	0.357390	-0.386613	-2.496993	0.000000	0.000000	16.033571	-0.545032	1.097661	15.801886	-8.058639	149.233969	0.262876	2.617212	-2.018803	-18.876922	-11.047414	-29.022703	37.649664	117.976660	89.200975	19.673816	-7.639675
3.288136	2.572147	-6.047615	96.905178	0.083284	0.712764	0.766189	7.097249	1.479739	-4.001182	25.331827	0.442124	39.609634	-2.525038	0.000000	6.243297	-3.825742	-9.442639	23.752446	0.414558	40.282999	15.903981	0.000000	0.044799	-0.033256	-0.434155	0.083196	-0.044230	-0.461290	0.073600	-0.080858	-0.461290	0.051201	-0.080858	-0.379886	0.041600	-0.067815	-0.352751	0.025598	-0.051513	-0.325616	0.319994	-0.376193	-2.414641	0.000000	0.000000	16.454294	-0.769782	0.626134	16.012836	-7.904640	150.022536	0.257303	2.716094	-1.850337	-19.156542	-11.044594	-29.015757	37.103621	118.222139	88.740476	19.049492	-7.985014
3.305085	2.439275	-6.132781	96.436487	0.085490	0.712548	0.766491	7.476125	1.413402	-3.683817	25.734400	0.449150	40.001753	-2.030826	0.000000	6.484369	-3.827102	-9.718903	24.151563	0.421524	40.251290	15.660847	0.000000	0.036314	-0.032867	-0.434903	0.067439	-0.043713	-0.462084	0.059661	-0.079913	-0.462084	0.041504	-0.079913	-0.380540	0.033721	-0.067023	-0.353358	0.020750	-0.050911	-0.326177	0.259389	-0.371800	-2.418799	0.000000	0.000000	16.638973	-0.910070	0.195840	16.285589	-7.726315	151.124447	0.250968	2.835282	-1.715104	-19.372779	-11.000859	-28.963259	36.339368	118.505930	88.052745	19.011497	-7.891626
